<?xml version="1.0" encoding="utf-8"?>
<!-- Generator: Adobe Illustrator 23.0.4, SVG Export Plug-In . SVG Version: 6.00 Build 0)  -->
<svg version="1.0" id="Layer_1" xmlns="http://www.w3.org/2000/svg" xmlns:xlink="http://www.w3.org/1999/xlink" x="0px" y="0px"
	 viewBox="0 0 720 720" style="enable-background:new 0 0 720 720;" xml:space="preserve">
<g>
	<path d="M422.46,0c6.3,1.15,12.65,2.06,18.88,3.49c35.91,8.24,64.16,28.01,85.93,57.42c2.18,2.94,3.92,5.28,8.49,4.74
		c52.76-6.23,103.76,25.9,126.63,78.91c14.29,33.12,16.28,67.29,6.56,101.99c-1.29,4.62-0.42,7.18,2.87,10.46
		c64.7,64.65,49.47,180.34-29.35,222.11c-6.49,3.44-10.4,7.83-13.75,14.2c-26.02,49.59-65.42,81.31-122.25,87.26
		c-14.85,1.56-30.25-1.35-45.32-2.98c-4.8-0.52-8.04-0.59-11.81,3.17c-45.75,45.53-91.72,90.83-137.58,136.25
		c-0.61,0.6-0.48,1.96-0.69,2.97c-0.78-0.57-1.56-1.15-2.34-1.72c4.61-25.39,9.21-50.78,13.83-76.16
		c4.64-25.52,9.31-51.03,14.11-77.39c-44.94-7.09-79.11-30.9-103.48-66.55c-13.51,5.15-25.89,11.72-39.08,14.55
		c-33.67,7.23-62.94-2.94-87.93-26.21c-1.91-1.77-3.81-3.62-5.97-5.04c-52-34.1-81.34-82.83-89.97-143.64
		c-9.87-69.55,9.36-130.57,58.4-181.44c16.71-17.34,36.73-30.07,58.95-39.45c3.38-1.43,6.75-4.39,8.66-7.53
		c28.96-47.65,69.24-79.83,124.52-91.48c24.37-5.14,48.7-4.22,72.99,1.32c3.48,0.79,8.03,0.16,11.2-1.51
		c16.19-8.5,33.1-14.43,51.32-16.5c1.61-0.18,3.16-0.82,4.74-1.24C408.17,0,415.32,0,422.46,0z M357.58,623.92
		c0.55,0.26,1.11,0.53,1.66,0.79c20.34-20.95,40.69-41.91,61.07-62.9c0.23,0.25-0.03-0.19-0.41-0.43
		c-46.22-29.07-72.18-71.24-80.87-124.69c-0.35-2.18-2.1-4.84-3.98-5.95c-23.07-13.61-31.63-34.2-28.27-59.91
		c4.69-35.87,41.8-56.64,71.4-40.05c19.46,10.9,28.32,28.7,27.99,50.46c-0.34,22.06-9.9,39.62-30.19,49.74
		c-5.07,2.53-5.63,5-4.55,9.77c4.51,20.01,12.44,38.43,24.51,55.06c48.71,67.12,140.22,69.02,191.25,3.94
		c1.5-1.91,2.79-3.98,4.33-6.18c-8.36-1.04-15.76-1.49-22.95-2.99c-7.41-1.55-14.76-3.73-21.84-6.44c-3.81-1.46-6.27-1.26-9.63,1.08
		c-11.82,8.24-24.97,10.23-38.8,6.36c-23.52-6.59-39.03-31.2-37.15-58.54c1.8-26.13,21.98-48.29,45.63-50.09
		c25.64-1.95,47.98,15.63,52.99,42.94c1.59,8.67,0.25,17.87,0.25,27.24c24.59,8.92,48.25,7.09,70.9-5.59
		c37.75-21.14,57.56-67.86,48.08-112.47c-4.08-19.2-12.35-36.14-25.96-50.68c-4.55,5.96-8.36,11.75-12.98,16.78
		c-4.09,4.46-6.46,8.51-5.21,15.08c0.98,5.18,0.02,10.94-0.99,16.27c-4.6,24.38-24.63,42.4-47.51,43.14
		c-22.81,0.74-43.88-16.16-49.44-40.6c-1.66-7.29-2.11-15.19-1.37-22.63c3.06-30.73,30.25-52.42,58.52-46.35
		c8.31,1.78,15.95,6.65,24.57,10.39c14.23-16.97,22.16-37.67,24.75-60.73c4.81-42.71-17.57-86.83-54.26-106.34
		c-12.53-6.66-25.85-10.22-40.51-10.28c2.1,6.95,3.82,13.36,6.05,19.6c0.6,1.68,2.51,3.55,4.21,4.08
		c22.03,6.87,40.25,32.6,34.91,63.99c-5.02,29.48-31.27,48.97-58.5,43.51c-25-5.01-43.22-31.17-40.8-58.58
		c1.8-20.38,11.33-35.99,28.95-46.29c-19.09-73.72-92.06-103.91-137.98-86.77c14.16,12.97,30.35,25.39,43.58,40.4
		c34.05,38.62,50.06,84.72,52.02,135.97c0.14,3.6,1.22,8.38,3.68,10.49c17.34,14.84,23.69,33.56,20.5,55.65
		c-4.46,30.88-33.42,51.31-61.31,43.64c-22.43-6.17-38.22-28.31-38.24-53.62c-0.02-25.28,15.69-47.49,38.08-53.82
		c1.97-0.56,3.92-1.17,5.67-1.7c1.03-29.37-10.98-67.99-29.66-96.12c-56.27-84.69-166.55-94.88-234.91-21.7
		c-1.88,2.02-3.6,4.19-6.16,7.2c2.06,0,2.9,0.04,3.73-0.01c23.9-1.22,46.99,2.63,69.16,11.55c4.39,1.77,7.28,1.91,11.26-1.52
		c13.08-11.26,28.39-14.17,44.78-8.84c24.67,8.03,39.72,36.49,34.41,64.2c-5.87,30.59-33.39,49.77-61,42.5
		c-23.15-6.1-39.98-30.44-38.14-56.37c0.43-6.11-1.58-8.11-6.83-9.81c-50.06-16.26-95.71-7.42-136.07,25.57
		c-68.35,55.87-80.33,159.72-31.72,233.08c0.39,0.58,1.3,0.81,0.72,0.47c2.17-13.79,4.45-27.57,6.41-41.4
		c0.32-2.28-0.21-5.11-1.34-7.11c-6.84-12.08-9.06-24.97-7.43-38.6c2.94-24.57,21.7-44.01,45.06-46.79
		c21.66-2.58,43.2,12.19,51.33,35.21c12.26,34.68-9.2,71.94-43.47,75.15c-5.09,0.48-10.32-0.42-15.4-0.68
		c-9.99,27.76,5.07,68.4,32.09,87.03c24.65,16.99,58.69,15.96,79.65-2.41c0-0.46,0.14-0.98-0.02-1.38
		c-15.76-41.42-16.6-83.13-2.75-125.23c0.66-2.01-0.13-5.15-1.37-7.03c-8.21-12.52-11.02-26.18-9.45-40.9
		c2.57-24.17,21.63-44.79,43.7-47.31c23.05-2.63,43.99,11.07,52.51,34.33c11.78,32.18-5.76,68.12-36.88,74.82
		c-6.37,1.37-13.14,0.89-19.81,1.26c-13.04,29.62-9.1,78.89,9.9,112.3c26.81,47.13,67.78,68.36,122.66,63.98
		C368.65,562.77,363.12,593.35,357.58,623.92z M563.74,175.87c-0.05-11.33-8.68-20.98-18.91-21.15
		c-10.52-0.18-19.47,9.63-19.44,21.3c0.03,11.41,8.54,20.91,18.88,21.08C554.83,197.27,563.8,187.5,563.74,175.87z M375.21,380.27
		c-0.09-11.41-8.61-20.92-18.9-21.08c-10.43-0.16-19.51,9.83-19.43,21.37c0.08,11.32,8.73,20.86,19.01,20.98
		C366.55,401.65,375.3,392.02,375.21,380.27z M135.31,326.98c-0.05-11.45-8.56-20.92-18.9-21.03c-10.47-0.11-19.55,9.89-19.44,21.38
		c0.11,11.18,8.94,20.95,19.08,21.1C126.54,348.59,135.35,338.77,135.31,326.98z M271.12,299.7c0.16-11.75-8.51-21.42-19.18-21.4
		c-10.36,0.02-19.02,9.37-19.24,20.76c-0.21,11.55,8.69,21.42,19.31,21.4C262.44,320.43,270.96,311.17,271.12,299.7z M604.12,320.31
		c0.03-11.43-8.39-21.05-18.66-21.33c-10.39-0.28-19.61,9.66-19.66,21.19c-0.05,11.54,9.05,21.45,19.52,21.26
		C595.65,341.25,604.09,331.77,604.12,320.31z M273.75,158.87c-0.13,11.73,8.59,21.42,19.23,21.37
		c10.27-0.05,18.96-9.53,19.13-20.87c0.17-11.57-8.73-21.4-19.34-21.34C282.36,138.09,273.88,147.39,273.75,158.87z M436.81,270.42
		c-0.33,11.67,8.27,21.64,18.84,21.85c10.22,0.2,19.14-9.18,19.51-20.54c0.38-11.56-8.34-21.59-18.91-21.78
		C445.86,249.78,437.13,258.97,436.81,270.42z M530.17,438.1c0.03-11.67-8.26-20.95-18.82-21.07c-10.55-0.12-19.1,9.04-19.27,20.65
		c-0.17,11.99,8.33,21.47,19.2,21.41C521.85,459.03,530.14,449.81,530.17,438.1z"/>
</g>
</svg>
